<?xml version="1.0" encoding="UTF-8" standalone="no"?>
<!-- Created with Inkscape (http://www.inkscape.org/) -->

<svg
   version="1.1"
   id="svg182"
   width="168"
   height="173.23636"
   viewBox="0 0 168 173.23636"
   sodipodi:docname="logo.svg"
   inkscape:version="1.2 (dc2aedaf03, 2022-05-15)"
   xmlns:inkscape="http://www.inkscape.org/namespaces/inkscape"
   xmlns:sodipodi="http://sodipodi.sourceforge.net/DTD/sodipodi-0.dtd"
   xmlns="http://www.w3.org/2000/svg"
   xmlns:svg="http://www.w3.org/2000/svg">
  <defs
     id="defs186" />
  <sodipodi:namedview
     id="namedview184"
     pagecolor="#505050"
     bordercolor="#ffffff"
     borderopacity="1"
     inkscape:showpageshadow="0"
     inkscape:pageopacity="0"
     inkscape:pagecheckerboard="1"
     inkscape:deskcolor="#505050"
     showgrid="false"
     inkscape:zoom="5.6568543"
     inkscape:cx="82.996658"
     inkscape:cy="88.565124"
     inkscape:window-width="1920"
     inkscape:window-height="1009"
     inkscape:window-x="-8"
     inkscape:window-y="-8"
     inkscape:window-maximized="1"
     inkscape:current-layer="g188" />
  <g
     inkscape:groupmode="layer"
     inkscape:label="Image"
     id="g188">
    <g
       id="path19446"
       transform="translate(-0.09765625,-0.09375)" />
    <g
       id="g24394"
       transform="translate(-51.972348,-0.70710678)"
       inkscape:export-filename="digitalLogo.png"
       inkscape:export-xdpi="96"
       inkscape:export-ydpi="96">
      <path
         id="path19966"
         style="fill:#1a1a1a;stroke:none;stroke-width:0.436364"
         d="m 120.67578,19.179688 c -0.60532,0.0025 -1.23537,0.07137 -1.90039,0.220703 -4.71393,1.05852 -9.03595,1.230055 -13.52734,3.005859 -1.13105,0.447185 -2.01539,0.128665 -2.18164,-1.005859 -6.943694,2.531226 -14.4053,4.895565 -17.451176,12.654297 -1.243614,3.167913 0.105998,6.096021 0.625,9.164062 0.29874,1.765768 -0.353048,3.447433 0.152344,5.236328 1.087272,3.848335 4.061779,6.637334 6.546875,9.59961 0.850252,1.013477 1.513033,2.699892 2.802735,3.222656 1.355764,0.54972 3.280554,-0.106878 4.707032,-0.167969 -3.395802,9.33119 -7.82697,17.607939 -7.85547,27.927734 -1.388452,0.02967 -2.64284,0.137612 -3.927734,0.71875 -11.023952,4.98671 1.026461,12.023031 0.412109,18.910161 -0.19069,2.13633 -1.903157,2.8458 -3.042969,4.44726 -2.003154,2.81411 -1.622635,6.96461 0.542969,9.52344 1.787634,2.11244 4.024586,4.04474 6.888672,4.28125 4.72503,0.39011 7.787253,-4.43329 6.544923,-8.64453 4.62055,4.22302 7.64232,10.03246 13.5293,12.92773 12.46015,6.12829 31.62603,7.56238 44.50781,1.89063 9.74957,-4.29338 20.34845,-17.00391 23.56445,-27.03711 h 1.74414 c 0.43069,5.45575 1.15304,9.18323 -0.67969,14.40039 -1.05677,3.01091 -0.57383,6.52822 1.25977,9.16211 0.5472,0.78589 2.20858,3.1373 3.33789,1.89453 0.73789,-0.81207 0.70798,-2.61932 1.17969,-3.63867 1.22226,-2.64349 3.02289,-5.73093 3.04297,-8.72657 0.0144,-2.17386 -1.33452,-3.67712 -1.84375,-5.67382 -0.67637,-2.65352 -0.96708,-7.29723 -0.83399,-10.0293 0.19287,-3.958835 4.09068,-5.710855 2.65821,-10.478516 -1.14022,-3.792917 -4.4862,-5.204037 -8.1211,-5.236328 1.3933,-4.715826 -1.13568,-9.443734 -2.18164,-13.964844 9.37734,-8.73e-4 18.2241,-10.779039 18.9668,-20.072266 0.34472,-4.313401 -1.95238,-11.680862 -4.32227,-15.255859 -2.20844,-3.331212 -4.49373,-2.955445 -7.04297,-5.080078 -1.99582,-1.664673 -2.10286,-4.233007 -4.98242,-5.123047 -2.08669,-0.644978 -4.35832,1.082811 -6.2168,0.246094 -1.64018,-0.738981 -2.55163,-2.516728 -4.25781,-3.212891 -3.82942,-1.562946 -9.86591,0.05298 -12.43554,3.193359 -1.23273,1.506622 -1.5411,3.537205 -2.70313,5.080078 -3.52364,4.678473 -4.49609,6.709001 -4.49609,12.734376 -6.05978,-1.719611 -12.02398,-2.617188 -18.32813,-2.617188 3.17979,-6.005958 5.73209,-14.135645 -0.87304,-19.527344 -1.90909,-1.558058 -4.39016,-1.603161 -6.54493,-2.595703 -2.29484,-1.057517 -4.30742,-2.176501 -6.66601,-2.333984 -0.19655,-0.01312 -0.39589,-0.02037 -0.59766,-0.01953 z m 8.57227,3.966796 c 6.83514,2.268772 11.08158,16.641255 1.74609,18.326172 l 0.43555,-1.308594 c -2.20494,-0.367368 -0.43686,-9.002791 -0.43555,-10.908203 h 0.36133 z m -10.95313,0.22461 c 0.94884,-0.02299 1.60368,0.392418 2.22656,1.521484 l -2.18164,0.871094 -1.30859,-2.181641 c 0.47729,-0.126139 0.89239,-0.201941 1.26367,-0.210937 z m 6.10742,0.126953 c 4.07246,-0.02079 6.37145,5.887154 5.28321,9.683594 -3.04189,-2.144101 -5.90161,-5.759806 -7.41797,-9.16211 0.75428,-0.35614 1.46836,-0.518083 2.13476,-0.521484 z m -22.64453,0.521484 -0.87304,2.617188 -4.363286,-0.873047 z m 8.39063,0.22461 c 0.48017,-1.39e-4 1.03088,0.06485 1.64648,0.210937 l -1.31054,3.927734 c -3.57525,-1.673115 -3.27034,-4.137827 -0.33594,-4.138671 z m 4.26367,0.210937 c 2.40524,0.691766 3.26453,2.423084 2.61914,4.800781 z m -9.76367,0.873047 c 0.0535,-0.001 0.10807,-8.96e-4 0.16406,0 l -0.87305,3.054687 -1.74609,-0.4375 c 0.33184,-1.626254 0.79744,-2.584886 2.45508,-2.617187 z m 16.70703,0.642578 c 1.10837,-0.04621 2.5752,1.20451 3.5293,3.720703 l -4.79883,0.873047 c -0.68287,-3.025404 0.0897,-4.544563 1.26953,-4.59375 z m -7.81641,0.230469 c 2.55448,3.590389 2.30115,5.913756 1.7461,10.035156 -3.18327,-2.084853 -4.50083,-7.18379 -1.7461,-10.035156 z m 55.33203,0.107422 c 0.72924,-0.0059 1.48687,0.09788 2.26758,0.328125 -2.76872,2.016436 -6.09953,4.759457 -9.59961,4.800781 1.55504,-2.997408 4.17246,-5.103216 7.33203,-5.128906 z m -61.87695,0.328125 2.61914,3.927734 c -1.77469,-0.739246 -4.12372,-1.883802 -2.61914,-3.927734 z m 65.59375,1.466797 c 1.61664,-0.01087 3.05484,0.794743 3.78711,2.896484 l -0.43555,0.4375 -2.02148,0.251953 c 0.36031,0.02922 0.74071,0.09022 1.14844,0.183594 l -1.74414,3.492187 2.18164,-1.746093 -0.87305,3.054687 h -1.30859 v -1.308594 l -3.92774,-1.310546 c 0.79287,-1.063788 1.57901,-1.759188 2.49414,-2.111329 l -6.42187,0.802735 c 1.23818,-2.337214 4.4267,-4.624466 7.12109,-4.642578 z m -79.121093,0.279296 c -0.0291,3.463345 -0.0015,7.153259 -3.490235,8.726563 0,-3.557837 -0.180353,-6.973584 3.490235,-8.726563 z m 12.654293,0.873047 c 2.36946,1.3862 2.92591,2.557399 2.61914,5.236329 -1.61327,-1.246694 -3.35528,-3.088803 -2.61914,-5.236329 z M 97.25,29.394531 c 0.473443,-0.02259 0.975045,0.190831 1.453125,0.734375 l 0.873047,-0.4375 0.435548,2.619141 L 97.394531,31 h -0.4375 l -1.74414,0.4375 C 95.546235,30.339252 96.346224,29.437663 97.25,29.394531 Z m 84.90625,0.160157 c 4.65709,0.01953 4.53392,8.476557 -0.30078,3.117187 -0.73265,-0.811914 -1.37214,-1.644043 -1.98828,-2.542969 0.86061,-0.406451 1.62376,-0.577012 2.28906,-0.574218 z m -63.81641,0.136718 1.3086,12.654297 h 0.87304 l 0.43555,-5.236328 3.49219,0.873047 c -0.85876,-1.702901 -2.39908,-1.557168 -3.41406,-2.878906 -2.1251,-2.76728 2.09578,-6.186556 4.39843,-3.839844 1.12187,1.143099 1.56212,2.424829 1.51953,3.722656 l 0.55079,-3.113281 c 1.58394,2.608521 1.61483,5.757786 -1.31055,7.417969 l 0.48047,-2.71875 c -1.19935,3.824053 -5.95163,7.370468 -9.20703,7.519531 l 0.8164,-6.982422 z m 13.34375,0.513672 1.49219,5.595703 h 0.4375 z M 101.32227,31 c 1.56232,0.247855 2.15595,0.65802 2.61718,2.181641 h -2.18164 z m 77.67187,0.4375 3.05469,3.927734 c -2.08669,-0.331785 -3.24844,-1.778651 -3.05469,-3.927734 z m -80.291015,1.308594 v 0.435547 l -2.617187,0.873047 z m 13.527345,0 1.30859,3.054687 h -0.43554 z m -24.000001,0.435547 -0.435547,8.728515 h -0.4375 c -1.200544,-2.845067 -1.390941,-6.385659 0.873047,-8.728515 z m 22.691411,0.4375 0.87304,4.800781 c -1.66735,-1.389822 -2.00802,-2.902809 -0.87304,-4.800781 z m 66.76367,0 c 0.64058,2.234408 0.28297,5.29979 -2.18164,6.109375 0.0205,-2.439889 0.27255,-4.442024 2.18164,-6.109375 z m -75.49219,0.435547 1.74609,0.4375 v 1.74414 l -2.18164,-0.435547 z m 64.2168,0.396484 c 0.40706,2.2e-4 0.83942,0.06768 1.29101,0.205078 l -4.46875,2.189453 c 0.58634,-1.543009 1.72392,-2.395316 3.17774,-2.394531 z m -66.39844,0.04102 0.4375,1.74414 c -2.028589,0.696542 -3.16403,1.210833 -4.363282,-0.871094 z m 17.45508,0.435546 -0.43555,5.236328 h -0.87305 z m 44.07226,0 -2.18164,2.181641 c 0.25178,-1.515994 0.66572,-1.930077 2.18164,-2.181641 z m -49.30859,0.4375 c 1.73629,2.043937 2.95968,3.829852 2.18164,6.544922 h -0.43555 z m 56.72656,0.435547 c 1.70792,0.508233 2.24753,1.276074 2.18164,3.054688 h -0.87109 z m 12.21875,0 1.7461,0.435547 -1.7461,1.746094 -0.43555,-1.746094 z m 9.03516,0.234375 c 2.71635,-0.0074 5.09442,3.060857 5.80078,5.4375 l -6.98047,-5.236328 c 0.39802,-0.137651 0.79161,-0.200109 1.17969,-0.201172 z m -4.67188,0.638672 h 1.31055 l -0.4375,1.308594 h -0.43555 z m -92.072263,0.435547 1.308594,3.492187 h -5.236329 z m 36.218753,0 c -0.008,2.940466 -0.096,5.12488 -3.49219,5.236328 z m 37.96289,0 c 1.37411,1.702859 2.64943,4.674222 0.4375,6.109375 -0.58517,-2.144939 -1.66368,-4.02112 -0.4375,-6.109375 z m 12.21875,0 0.87304,1.310547 c -0.98203,-0.206487 -1.3609,-0.376838 -0.87304,-1.310547 z m 3.49023,0 1.3086,1.310547 h -1.74414 z m 5.23633,0 c 2.73818,1.465201 5.09532,3.314791 6.54492,6.109375 l -4.79883,0.4375 z m -87.70898,0.4375 0.87304,3.925781 -3.054685,-1.74414 0.435547,1.308593 -2.181641,-1.746093 z m 1.74609,0 c 1.84102,1.248403 2.30432,3.553091 2.61719,5.671875 l -3.05469,-5.236328 z m 3.05469,0.435547 c 3.37537,1.501505 4.06225,4.446391 3.05468,7.855469 h -0.4375 c -1.34803,-2.311264 -3.15086,-5.125023 -2.61718,-7.855469 z m 51.49023,0.873047 h 0.87305 v 3.490234 h 0.43555 l 0.4375,-0.873047 0.43554,3.054688 h -0.43554 l -0.4375,-1.308594 h -0.43555 v 1.746094 c -1.8685,-1.319946 -1.45778,-4.13127 -0.87305,-6.109375 z m 3.49024,0 h 0.87304 v 6.544922 h -0.43554 z m 11.3457,0 -0.43555,1.746093 h -0.4375 z m -7.85352,0.435547 h 0.87305 l -0.87305,10.037109 c -1.7184,-2.51505 -1.13368,-7.350437 0,-10.037109 z m 19.625,0.03125 c 0.5885,-0.0043 1.31471,0.128372 2.19336,0.40625 l -1.31054,2.617187 1.74609,-1.308594 c -0.30065,1.871091 -0.85515,2.749289 -2.61719,3.490235 l -1.74609,-0.435547 c -0.71556,-3.00521 -0.36704,-4.754233 1.73437,-4.769531 z m -3.48047,0.841796 h 0.87305 l -0.43555,2.181641 h -0.4375 z m -68.94531,1.308594 c 1.51156,1.737521 3.15106,3.266646 2.61914,5.673828 h -0.4375 z m 54.98242,0 c 1.80786,2.877238 1.69186,6.802122 -0.87304,9.164063 z m 9.59961,0.4375 c 3.55157,1.190361 -0.44404,8.366049 -2.61718,9.59961 z m -76.800778,0.435547 c 3.317238,0.598691 5.765878,2.812784 7.419918,5.673828 -2.74583,-1.143645 -6.52101,-2.617293 -7.419918,-5.673828 z m 88.146488,0 h 0.87304 l 0.43555,1.746094 h -1.74414 z M 92,42.521484 c 0.07057,-0.0015 0.13973,-0.0014 0.208984,0 4.511281,0.09117 6.298136,6.23713 11.294926,7.679688 C 101.00747,54.680145 91.662879,45.742005 90.412109,42.783203 90.978451,42.615804 91.505989,42.532218 92,42.521484 Z m 86.55859,0.697266 c 3.27927,1.089126 0.40306,4.014984 -1.31054,5.236328 z m -80.291012,0.873047 c 1.365317,0.910192 9.402492,6.631753 8.726562,3.927734 l 2.18164,1.308594 c -3.6576,1.513183 -10.328362,-0.841152 -10.908202,-5.236328 z m 13.089842,0 0.87305,3.054687 h -0.43555 z m 82.22266,0.390625 c 2.90772,-0.0099 2.86219,3.21351 2.86914,5.71875 -2.40349,-0.713875 -4.16724,-2.077657 -5.23633,-4.363281 l 3.49023,1.308593 -1.74609,-2.61914 c 0.22099,-0.03057 0.4292,-0.04426 0.62305,-0.04492 z m -38.15039,0.04492 3.49219,4.800781 c -1.84451,-1.031076 -4.3239,-2.378243 -3.49219,-4.800781 z m 17.01953,0 h 0.87305 l -1.31055,5.236328 h -0.43555 z m -83.345704,0.4375 c 0.882223,2.114505 2.798642,6.0767 0.435546,7.417968 l -2.18164,-6.982421 h 0.4375 l 0.871094,2.18164 h 0.4375 z m 47.949214,0.857422 c 0.18066,-5.74e-4 0.36199,1.55e-4 0.54297,0.002 3.86109,0.03834 7.79526,0.618011 11.72657,1.777343 4.89633,1.444265 9.91377,5.114154 13.96093,8.167969 1.89688,1.430739 2.91781,3.780059 5.23828,4.466797 l 0.002,0.01367 a 0.02561273,0.02465499 0 0 1 0.0195,0.0098 l 1.32226,1.751953 c 4.95289,3.709044 9.87048,13.428147 10.00196,19.607422 h -0.4375 l -2.61719,-5.236329 c 0,4.45968 0.29131,10.709775 -4.36328,13.089844 0.90153,-4.855364 0.045,-12.416632 -3.49219,-16.144531 -0.0121,4.427619 -1.99093,8.058117 -4.08008,11.792969 l 4.95313,-7.865235 v 7.853516 l 2.18164,-1.744141 -1.3086,10.035157 c 4.75898,-3.422545 5.86898,-7.894547 7.41797,-13.089844 h 0.4375 c 2.09585,5.585745 0.94344,10.099239 1.0918,15.708984 0.21295,8.052569 -3.23123,15.348659 -8.44141,21.380859 -14.20606,16.45071 -38.22662,20.37138 -57.66992,9.92188 C 97.632218,118.77259 88.688341,94.211281 97.830078,78.128906 h 0.4375 l 2.181642,4.798828 h 0.43555 l -0.43555,-3.054687 h 0.43555 l 1.73828,2.390625 c -1.67973,-3.284885 -1.73828,-7.581838 -1.73828,-11.117188 h -0.87305 l -0.435548,6.982422 c -2.829786,-6.142975 2.876768,-14.761062 7.167968,-19.15039 8.19798,-8.386633 18.92805,-13.120121 30.30859,-13.15625 z m 44.9961,0.01563 0.43555,1.74414 -3.49024,2.181641 z m -91.199221,0.435547 2.181641,3.054687 -1.310547,0.435547 z m 78.140621,0.96289 c 1.82358,2.08011 2.01106,4.203308 1.16016,6.800781 l -0.90234,-2.169921 -0.63672,1.845703 -0.61719,-0.0078 0.3457,-3.390625 0.90821,1.552735 z m 20.91211,0.345703 c -0.15142,2.762095 -1.50091,4.412359 -3.92578,5.673828 l 0.87305,-2.18164 -1.74609,0.871093 -0.4375,-0.435546 2.61914,-2.181641 -0.43555,1.746094 z m 1.7461,0.873047 c 0.48175,2.372915 3.72596,5.367191 0,6.544922 -0.65454,4.22874 -5.42938,5.64241 -9.16406,5.673828 2.05818,-2.922282 4.81127,-6.71896 8.72851,-6.109375 v -0.435547 l -1.74609,-0.4375 1.74609,-2.18164 z m -13.52735,0.873047 -2.61718,4.800781 h -0.4375 z m 19.20118,0.435547 h 0.87109 c -0.003,3.842126 -0.10461,8.670227 -2.61719,11.783203 -1.23971,-4.193398 1.1461,-7.720277 1.7461,-11.783203 z m -104.72852,0.4375 6.109375,2.18164 v 0.435547 l -3.927734,-0.435547 v 0.435547 l 4.363281,0.873047 c -1.641612,2.323082 -4.839008,0.91866 -4.798828,-1.746094 L 92.59375,51.074219 Z m 17.89063,0.435547 v 0.4375 l -2.18165,0.435547 z m 71.56445,0 -4.80078,5.236328 c 0.3443,-1.702186 0.86321,-2.737888 2.61914,-3.054688 z m -76.69727,0.660156 c 0.75766,-0.01715 1.58928,0.311434 2.51563,0.648437 -1.40902,1.421611 -2.59662,1.177136 -4.36328,0.4375 0.56863,-0.785393 1.17913,-1.070806 1.84765,-1.085937 z m -13.193357,0.648437 3.490235,3.492188 v 0.435547 C 93.2784,56.772773 90.703475,54.258799 92.158203,51.945312 Z M 173.75781,53.255859 173.32227,55.4375 172.01172,55 Z M 105.24805,55.4375 c -1.81702,3.470671 -4.67051,3.925552 -8.291019,3.927734 z m -7.066409,0.697266 c 0.561873,0.0027 1.156692,0.211374 1.830079,0.611328 l -3.925782,0.435547 c 0.706879,-0.713536 1.373226,-1.050293 2.095703,-1.046875 z m 73.394529,0.175781 0.43555,0.871094 h -0.87305 z m 9.99805,0.132812 c 0.66804,-0.01083 1.32106,0.278549 1.88476,1 l -6.3125,3.970703 c 0.10016,-1.954182 2.33741,-4.936817 4.42774,-4.970703 z m 9.20117,2.484375 c -1.15724,4.110933 -6.83295,6.107784 -10.47266,3.927735 z m -17.45312,0.4375 0.43554,1.744141 -1.74609,-1.308594 z m 20.50781,2.181641 c -0.28887,5.55791 -4.74382,5.993635 -8.29102,8.726563 l -1.30859,-0.435547 c -0.85832,1.490164 -4.40325,1.417463 -4.80078,-0.4375 l 4.80078,0.4375 6.06836,-3.339844 z m -2.18164,0.435547 c -1.01629,5.237186 -9.60328,7.334345 -13.96289,5.236328 v -0.435547 c 5.73677,1.365808 9.47184,-1.733175 13.96289,-4.800781 z m -15.27344,0.873047 6.98242,2.617187 c -2.13208,1.456571 -7.9433,1.03906 -6.98242,-2.617187 z m -68.07227,3.490234 c -4.37269,3.642372 -2.58964,14.642591 -2.18164,19.636719 -0.66688,-0.376763 -1.24404,-0.823408 -1.75195,-1.320313 l 3.49805,4.810547 c -0.39797,-4.563878 -3.05001,-10.475404 -0.4375,-14.835937 0.8269,2.85174 2.10088,5.018044 3.59179,6.943359 -2.51847,-4.410607 -2.71875,-10.442892 -2.71875,-15.234375 z m 8.29102,2.619141 c -1.50327,6.101521 -1.05045,11.977613 0.87305,17.890625 -1.2676,-0.404827 -2.34134,-0.984426 -3.28321,-1.675781 1.51357,1.593127 3.09234,3.211394 4.5918,5.166015 -2.5248,0.02269 -4.47182,0.397428 -5.23633,3.054688 h 8.72852 C 119.155,86.858573 116.59899,82.730315 116.59375,75.074219 h 0.4375 c 2.49339,4.730569 3.86687,10.629691 8.72656,13.699219 2.05832,1.299733 4.73699,0.506329 6.98242,0.296874 4.79477,-0.447612 17.19381,1.831588 18.32618,-4.396484 1.51801,0.984775 1.34868,2.299856 0.87304,3.927734 5.58633,-0.01299 9.21151,-7.878456 10.03711,-12.65625 h 0.87305 l -0.4375,13.091797 1.64844,-2.617187 h -0.33985 l -1.30859,-16.582031 h -0.87305 c 0.20728,5.979776 -1.44196,15.548158 -8.29101,17.453125 l -1.74414,-5.236328 h -0.87305 c -0.32073,1.548895 -0.54534,3.806156 -1.92774,4.80664 -3.91407,2.833015 -11.04144,1.135589 -11.16406,-3.933594 h -1.30859 c -0.0493,5.864237 -7.93435,7.416009 -12.17188,3.794922 -5.19873,-4.443874 -5.59432,-11.7392 -7.02734,-17.757812 z m 72,1.308594 v 0.435546 c -2.27476,1.292938 -4.40069,2.065885 -6.98047,1.310547 v -0.4375 z m -2.21289,20.425781 c 3.67047,0.05358 4.4113,5.927342 1.5625,8.33789 l 0.002,0.01758 c 0,0 -2.93674,3.165792 -4.44336,3.548832 -1.29786,0.32996 -1.70308,0.24331 -1.79101,0.21289 -0.0136,4.6e-4 -0.0214,0.003 -0.0352,0.004 0.0617,-2.987581 -0.45022,-10.386871 2.94141,-11.755857 0.64734,-0.261265 1.23548,-0.372944 1.76367,-0.365234 z m -96.587891,0.945312 c 0.523556,-0.03966 1.027637,0.10919 1.455078,0.517578 1.595637,1.524049 1.4001,7.890611 1.480469,10.220701 -0.206419,-0.02 -0.391866,-0.0496 -0.566407,-0.0859 -0.03133,8.1e-4 -0.06742,-0.005 -0.109375,-0.0156 -1.097052,-0.27221 -2.74252,-1.26428 -3.021484,-1.43555 l -0.002,0.002 c -0.0046,-0.003 -0.0091,-0.008 -0.01367,-0.0117 -0.01405,-0.009 -0.04102,-0.0254 -0.04102,-0.0254 l -0.0039,-0.0117 c -1.55747,-1.161697 -3.298288,-2.991865 -2.802734,-5.572268 0.315156,-1.641238 2.054321,-3.463044 3.625,-3.582031 z m 4.109375,14.847659 2.61914,6.98047 c -2.381642,-1.22181 -3.654884,-4.4418 -2.61914,-6.98047 z m -2.992188,8.43554 c 1.222324,0.0154 2.784358,0.41815 4.333985,1.875 3.305859,3.1081 0.677731,6.92214 -0.59375,6.61133 -1.271487,-0.3108 -8.701953,-0.79207 -6.074219,-8.02539 0,0 0.94869,-0.47838 2.333984,-0.46094 z" />
      <g
         id="g24245"
         style="fill:#1a1a1a">
        <path
           id="path926"
           style="fill:#1a1a1a;stroke:none;stroke-width:0.436364"
           d="m 124.44922,142.27344 -3.49219,11.78125 h 0.4375 l 1.74414,-5.23633 c 1.45309,0.59214 3.15223,1.60643 4.75586,0.97852 2.25339,-0.8819 3.01555,-4.76564 1.16406,-6.38672 -1.11665,-0.97833 -3.20122,-0.95868 -4.60937,-1.13672 z m 2.09961,1.80468 c 1.94796,0.0489 3.27673,4.16865 0.0645,4.01563 -0.8544,-0.0406 -1.76985,-0.3946 -2.60156,-0.58398 0.1728,-0.71215 0.29957,-1.45297 0.6875,-2.0918 0.59993,-0.98734 1.25329,-1.35481 1.84961,-1.33985 z" />
        <path
           id="path904"
           style="fill:#1a1a1a;stroke:none;stroke-width:0.436364"
           d="m 101.75781,130.49219 c -3.374832,3.34515 -8.40679,10.45884 -8.72656,15.27148 2.313518,-1.41382 4.046409,-4.86088 4.798828,-7.41797 1.493669,0.53018 3.116862,1.55008 4.759762,1.11328 4.76466,-1.26631 1.1783,-7.14061 -0.83203,-8.96679 z m -0.87304,3.05469 c 3.46995,1.09614 2.17271,4.5332 -1.308598,3.92578 z" />
        <path
           style="fill:#1a1a1a;stroke:none;stroke-width:0.436364"
           d="m 144.52142,143.14625 0.43636,6.10909 h 1.74546 l -1.30909,-6.10909 h -0.87273"
           id="path930" />
        <path
           style="fill:#1a1a1a;stroke:none;stroke-width:0.436364"
           d="m 134.48506,143.14625 -1.30909,6.98182 5.23636,-4.8 c 0.75971,1.2384 1.17862,1.53076 2.61818,1.30909 -1.23054,-3.03447 -3.3792,-2.74036 -6.10909,-1.74545 l -0.43636,-1.74546"
           id="path928" />
        <path
           style="fill:#1a1a1a;stroke:none;stroke-width:0.436364"
           d="m 156.30324,146.63716 c -1.20175,0.27055 -2.67709,1.17164 -3.91898,0.88756 -3.82822,-0.87534 -1.2192,-6.82778 3.04625,-4.37847 0.17237,-4.93614 -5.52131,-2.57193 -6.36218,0.87273 -1.24364,5.0928 4.96975,7.33091 7.23491,2.61818"
           id="path924" />
        <path
           style="fill:#1a1a1a;stroke:none;stroke-width:0.436364"
           d="m 114.84869,140.09171 -0.43636,0.43636 0.43636,-0.43636"
           id="path922" />
        <path
           style="fill:#1a1a1a;stroke:none;stroke-width:0.436364"
           d="m 144.52142,139.21898 0.87273,1.74545 v -1.74545 h -0.87273"
           id="path920" />
        <path
           style="fill:#1a1a1a;stroke:none;stroke-width:0.436364"
           d="m 113.97597,138.34625 -2.61819,6.54546 c 2.0387,-0.72393 9.01877,-7.10008 6.42764,-0.43855 -0.3456,0.88887 -0.58865,1.68436 -0.75491,2.62036 4.23709,-2.41091 3.82037,-9.52451 -2.18182,-6.98181 v -1.74546 h -0.87272"
           id="path918" />
        <path
           style="fill:#1a1a1a;stroke:none;stroke-width:0.436364"
           d="m 109.17597,136.6008 -3.05455,5.67272 c 2.09629,-0.65411 4.43738,-3.5856 3.05455,-5.67272"
           id="path916" />
        <path
           style="fill:#1a1a1a;stroke:none;stroke-width:0.436364"
           d="m 159.35779,135.29171 1.74545,11.34545 h 0.87273 l 0.43636,-1.30909 c 2.03564,0.52669 4.69309,1.56567 6.10909,-0.43636 l -5.67273,-1.3091 3.49091,-4.8 -4.8,2.61819 -0.87272,-6.10909 h -1.30909"
           id="path914" />
        <path
           style="fill:#1a1a1a;stroke:none;stroke-width:0.436364"
           d="m 169.83051,141.4008 c 2.2896,6.51141 11.43491,-4.21222 4.79346,-4.61935 -1.44437,-0.0886 -2.89484,0.64102 -4.35709,0.69207 1.36232,-1.60494 2.22414,-2.29134 4.36363,-2.18181 -1.18778,-3.57557 -5.6928,-0.15971 -5.56058,2.59243 0.16756,3.4896 4.27986,-0.0349 5.7936,0.95477 1.9056,1.24581 -2.08145,2.49381 -2.84029,2.54269 -0.72655,0.0467 -1.46531,0.0188 -2.19273,0.0192"
           id="path912" />
        <path
           style="fill:#1a1a1a;stroke:none;stroke-width:0.436364"
           d="m 110.92142,133.54625 -0.87273,0.87273 v 0.43636 l 2.18182,0.43637 -1.30909,-1.74546"
           id="path910" />
        <path
           style="fill:#1a1a1a;stroke:none;stroke-width:0.436364"
           d="m 179.56884,133.56676 c -2.01775,1.24364 -0.23738,4.5456 1.90516,3.35127 2.0496,-1.1424 0.21731,-4.65949 -1.90516,-3.35127"
           id="path906" />
        <path
           style="fill:#1a1a1a;stroke:none;stroke-width:0.436364"
           d="m 93.466872,130.04269 c -2.38682,0.54589 -2.29374,4.27942 0.41752,3.77542 2.3006,-0.4272 1.94404,-4.31608 -0.41752,-3.77542"
           id="path902" />
      </g>
      <path
         style="fill:#1a1a1a;stroke:none;stroke-width:0.436364"
         d="m 133.17597,117.4008 c -0.13048,3.56901 4.01411,5.29701 6.98181,6.10909 l 3.05455,-6.54546 -4.2192,3.60829 -5.81716,-3.17192"
         id="path898" />
      <path
         style="fill:#ef273e;fill-opacity:1;stroke:#1a1a1a;stroke-width:0.6;stroke-dasharray:none"
         d="m 113.5396,112.36865 c -2.48552,0.46996 -6.32771,3.06546 -2.98996,5.46633 2.10545,1.51418 5.76349,1.63942 8.22633,1.16291 2.4192,-0.46822 5.07491,-3.38008 2.47941,-5.52655 -1.9488,-1.61193 -5.37381,-1.5456 -7.71578,-1.10269"
         id="path894" />
      <path
         style="fill:#ef273e;fill-opacity:1;stroke:#1a1a1a;stroke-width:0.6;stroke-dasharray:none"
         d="m 161.10324,109.31411 c -6.73222,1.14589 -3.64844,7.98327 2.18182,7.08043 7.65338,-1.18429 4.69483,-8.25033 -2.18182,-7.08043"
         id="path892" />
      <path
         style="fill:#ef273e;fill-opacity:1;stroke:#1a1a1a;stroke-width:1.8;stroke-linecap:round;stroke-linejoin:round;stroke-dasharray:none;paint-order:stroke fill markers"
         d="m 117.25391,100.03516 c -0.29042,0.005 -0.46094,0.0234 -0.46094,0.0234 h -0.002 c -2.49968,0.0993 -3.86913,0.33057 -4.61329,0.53516 -0.37207,0.10229 -0.58756,0.19818 -0.70898,0.26758 -0.0459,0.0263 -0.0767,0.0468 -0.0996,0.0645 0.0562,6.19681 9.84325,7.36607 10.02148,0.043 -1.59992,-0.85559 -3.33124,-0.94642 -4.13671,-0.93359 z"
         id="path17061"
         sodipodi:nodetypes="cccsccccc" />
      <path
         style="fill:#1a1a1a;stroke:none;stroke-width:0.436364"
         d="M 115.05859,96.414062 C 110.866,96.383033 107.14591,98.321843 106.99414,103 l 4.36328,-2.18164 c 10e-4,0.0165 0.004,0.0324 0.006,0.0488 0.0213,-0.0153 0.0471,-0.0319 0.0801,-0.0508 0.1263,-0.0722 0.34568,-0.16839 0.7207,-0.27149 0.74973,-0.20611 2.12302,-0.43575 4.62305,-0.53515 h 0.002 c 0.003,-3.3e-4 2.41783,-0.255796 4.60352,0.90234 5.2e-4,-0.0315 0.002,-0.062 0.002,-0.0937 l 4.79883,2.61914 0.4375,-0.4375 c -1.46161,-3.984954 -6.82066,-6.550771 -11.57227,-6.585938 z"
         id="path888" />
      <path
         style="fill:#ef273e;fill-opacity:1;stroke:#1a1a1a;stroke-width:1.8;stroke-linecap:round;stroke-linejoin:round;stroke-dasharray:none;paint-order:stroke fill markers"
         d="m 157.53516,99.083984 c -0.86257,0.0098 -2.39107,0.149236 -3.82618,0.894532 -0.0532,5.384054 9.77078,7.102584 10.02735,0.01563 l -0.0312,0.02148 c 0,0 -0.004,-0.007 -0.0254,-0.02539 -0.0217,-0.0189 -0.0604,-0.04733 -0.1211,-0.08203 -0.12142,-0.0694 -0.33691,-0.165288 -0.70898,-0.267578 -0.74416,-0.20459 -2.1136,-0.435886 -4.61328,-0.535156 h -0.002 c 0,0 -0.26482,-0.02643 -0.69922,-0.02148 z"
         id="path17057"
         sodipodi:nodetypes="sccccssccss" />
      <path
         style="fill:#1a1a1a;stroke:none;stroke-width:0.436364"
         d="m 159.73828,95.132812 c -4.05121,-0.04012 -8.10299,1.972081 -9.08984,6.123048 l 2.85937,-1.22656 c 2.21834,-1.237944 4.72738,-0.972995 4.73047,-0.972659 h 0.002 c 2.50003,0.0994 3.87332,0.329046 4.62305,0.535156 0.37502,0.1031 0.5944,0.199274 0.7207,0.271484 0.0631,0.0361 0.10243,0.06649 0.12696,0.08789 0.0185,0.01618 0.0233,0.022 0.0273,0.02734 6.3e-4,-0.01116 0.001,-0.022 0.002,-0.0332 l 5.23633,2.183599 c -0.6129,-4.584827 -4.9257,-6.95339 -9.23828,-6.996099 z"
         id="path886" />
      <path
         style="fill:#000000;stroke:none;stroke-width:0.436364"
         d="m 158.92971,90.284285 c -5.01687,2.123345 2.10284,4.429964 4.72538,3.229091 3.63622,-1.665164 -2.49425,-4.173382 -4.72538,-3.229091"
         id="path880" />
      <path
         style="fill:#6f3c3d;stroke:none;stroke-width:0.436364"
         d="m 141.03051,70.709885 -0.43636,0.436364 0.43636,-0.436364"
         id="path876" />
      <path
         style="fill:#6f3c3d;stroke:none;stroke-width:0.436364"
         d="m 145.39415,70.273522 -0.87273,1.309091 0.87273,-1.309091"
         id="path872" />
      <path
         style="fill:#6f3c3d;stroke:none;stroke-width:0.436364"
         d="m 139.57611,67.946395 -0.14574,0.290618 0.14574,-0.290618"
         id="path870" />
      <path
         style="fill:#6f3c3d;stroke:none;stroke-width:0.436364"
         d="m 121.6852,61.837304 -0.14574,0.290618 0.14574,-0.290618"
         id="path862" />
      <path
         style="fill:#6f3c3d;stroke:none;stroke-width:0.436364"
         d="m 119.64869,60.673522 -0.43636,0.436364 0.43636,-0.436364"
         id="path860" />
      <path
         style="fill:#6f3c3d;stroke:none;stroke-width:0.436364"
         d="m 116.8852,60.528213 -0.14574,0.290618 0.14574,-0.290618"
         id="path858" />
      <path
         style="fill:#6f3c3d;stroke:none;stroke-width:0.436364"
         d="m 96.521422,59.800795 -0.43636,0.436363 0.43636,-0.436363"
         id="path856" />
      <path
         style="fill:#6f3c3d;stroke:none;stroke-width:0.436364"
         d="m 175.06688,55.437159 -0.87273,1.30909 0.87273,-1.30909"
         id="path844" />
      <path
         style="fill:#6f3c3d;stroke:none;stroke-width:0.436364"
         d="m 185.97597,55.000795 -4.8,4.8 4.8,-4.8"
         id="path840" />
      <path
         style="fill:#ef273e;fill-opacity:1;stroke:#1a1a1a;stroke-width:0.5;stroke-linecap:round;stroke-linejoin:miter;stroke-dasharray:none"
         d="m 152.37597,55.000795 -3.49091,10.036363 -0.87273,-0.872727 -2.18182,3.490909 h -0.43636 l -1.30909,-4.363636 h -0.43637 l -2.18181,5.672727 -1.74546,-5.236364 h -0.43636 c -1.00495,2.365528 -1.96277,5.700219 -1.60626,8.290473 0.52582,3.818182 2.98386,2.261673 3.78808,-0.435927 2.90443,1.981091 3.84785,1.151127 6.54545,-0.872728 l 0.87273,2.618182 3.05454,-2.181818 c 0.0916,1.969309 0.37178,3.389236 2.18182,4.363636 1.4496,-6.088145 0.70036,-14.387345 -0.43636,-20.50909 h -1.30909"
         id="path838" />
      <path
         style="fill:#ef273e;fill-opacity:1;stroke:#1a1a1a;stroke-width:0.5;stroke-linecap:round;stroke-linejoin:miter;stroke-dasharray:none"
         d="m 111.35779,65.473522 4.36363,-3.490909 0.87273,3.927273 h 0.87273 l 3.05454,-3.490909 0.87273,7.418181 3.05454,-2.618182 c 0.11171,2.437528 0.7344,4.489746 2.61819,6.109091 l 1.74545,-12.218181 -2.18182,-1.309091 -1.30909,2.618182 h -0.43636 l -0.87273,-6.981818 -3.49091,1.745454 -0.43636,-1.309091 -3.49091,1.745455 c -0.37353,-2.336291 -2.01382,-2.666182 -3.15709,-0.427637 -1.24757,2.442328 -2.02124,5.557964 -2.07928,8.282182"
         id="path836" />
      <path
         style="fill:#6f3c3d;stroke:none;stroke-width:0.436364"
         d="m 199.50324,52.382613 -0.43636,3.490909 h -0.43637 l 0.87273,-3.490909"
         id="path832" />
      <path
         style="fill:#6f3c3d;stroke:none;stroke-width:0.436364"
         d="m 181.61233,48.891704 -1.74545,1.745455 1.74545,-1.745455"
         id="path814" />
      <path
         style="fill:#6f3c3d;stroke:none;stroke-width:0.436364"
         d="m 168.52142,48.455341 -0.87273,3.490909 0.87273,-3.490909"
         id="path810" />
      <path
         style="fill:#6f3c3d;stroke:none;stroke-width:0.436364"
         d="m 112.23051,48.018977 -0.43636,0.436364 0.43636,-0.436364"
         id="path808" />
      <path
         style="fill:#6f3c3d;stroke:none;stroke-width:0.436364"
         d="m 89.103242,47.582613 0.43636,0.436364 -0.43636,-0.436364"
         id="path802" />
      <path
         style="fill:#6f3c3d;stroke:none;stroke-width:0.436364"
         d="m 116.01248,47.000941 -0.14575,0.290618 0.14575,-0.290618"
         id="path800" />
      <path
         style="fill:#6f3c3d;stroke:none;stroke-width:0.436364"
         d="m 118.1943,45.69185 -0.14575,0.290618 0.14575,-0.290618"
         id="path786" />
      <path
         style="fill:#6f3c3d;stroke:none;stroke-width:0.436364"
         d="m 172.44869,43.218977 -0.43636,0.436364 0.43636,-0.436364"
         id="path770" />
      <path
         style="fill:#6f3c3d;stroke:none;stroke-width:0.436364"
         d="m 169.6852,43.510032 -0.14574,0.290618 0.14574,-0.290618"
         id="path768" />
      <path
         style="fill:#6f3c3d;stroke:none;stroke-width:0.436364"
         d="m 184.23051,42.34625 -0.43636,0.872727 0.43636,-0.872727"
         id="path764" />
      <path
         style="fill:#6f3c3d;stroke:none;stroke-width:0.436364"
         d="m 134.48506,41.473522 -2.18182,1.745455 2.18182,-1.745455"
         id="path754" />
      <path
         style="fill:#6f3c3d;stroke:none;stroke-width:0.436364"
         d="m 179.72157,39.582628 -0.14575,0.29088 0.14575,-0.29088"
         id="path748" />
      <path
         style="fill:#6f3c3d;stroke:none;stroke-width:0.436364"
         d="m 98.266882,39.291704 0.43636,0.436364 -0.43636,-0.436364"
         id="path744" />
      <path
         style="fill:#6f3c3d;stroke:none;stroke-width:0.436364"
         d="m 166.3396,37.109886 -0.87272,1.309091 0.87272,-1.309091"
         id="path718" />
      <path
         style="fill:#6f3c3d;stroke:none;stroke-width:0.436364"
         d="m 132.7396,37.109886 0.43637,0.436364 -0.43637,-0.436364"
         id="path716" />
      <path
         style="fill:#6f3c3d;stroke:none;stroke-width:0.436364"
         d="m 95.648702,36.237159 0.43636,2.618182 -0.43636,-2.618182"
         id="path706" />
      <path
         style="fill:#6f3c3d;stroke:none;stroke-width:0.436364"
         d="m 97.394162,30.564432 0.43636,0.436363 -0.43636,-0.436363"
         id="path664" />
      <path
         style="fill:#6f3c3d;stroke:none;stroke-width:0.436364"
         d="m 136.52157,29.109901 -0.14575,0.29088 0.14575,-0.29088"
         id="path654" />
      <path
         style="fill:#6f3c3d;stroke:none;stroke-width:0.436364"
         d="m 129.97611,27.80081 -0.14574,0.29088 0.14574,-0.29088"
         id="path648" />
      <path
         style="fill:#6f3c3d;stroke:none;stroke-width:0.436364"
         d="m 121.83051,23.582614 -1.30909,-0.872728 1.30909,0.872728"
         id="path624" />
      <path
         style="fill:#ef273e;fill-opacity:1;stroke:none;stroke-width:1.36651;stroke-dasharray:none"
         d="m 185.15611,114.81184 c 0,0 0.71556,3.6025 -0.78959,6.6128 0,0 -0.98699,4.02197 2.29474,6.66216 0,0 0.51816,-4.04665 2.19604,-5.52712 0,0 1.25841,-2.83759 -0.17272,-5.60115 0,0 -1.5545,0.44415 -3.52847,-2.14669 z"
         id="path16300" />
      <circle
         style="fill:#1a1a1a;fill-opacity:1;stroke:none;stroke-width:11.3571;stroke-linecap:round;stroke-linejoin:round;stroke-dasharray:none;paint-order:stroke fill markers"
         id="path17841"
         cx="116.54639"
         cy="102.37391"
         r="2.7068181" />
      <circle
         style="fill:#1a1a1a;fill-opacity:1;stroke:none;stroke-width:11.1428;stroke-linecap:round;stroke-linejoin:round;stroke-dasharray:none;paint-order:stroke fill markers"
         id="path17841-0"
         cx="158.88512"
         cy="101.22478"
         r="2.655746" />
      <path
         style="fill:#ef273e;fill-opacity:1;stroke:#1a1a1a;stroke-width:0.5;stroke-linecap:round;stroke-linejoin:miter;stroke-dasharray:none"
         d="m 168.34528,60.495296 0.41406,2.074219 -1.30859,3.490234 h -0.43555 l -1.31055,-3.490234 h -0.43554 c -0.9264,3.295999 -0.74046,5.942036 0.43554,9.162109 l 1.7461,-1.308593 4.36328,0.873046 -2.1582,-9.066406 z"
         id="path19937" />
      <g
         id="g23125"
         style="fill:none;fill-opacity:1;stroke:#ef273e;stroke-opacity:1"
         transform="translate(-139.83037,-21.213203)">
        <path
           style="fill:none;fill-opacity:1;stroke:#ef273e;stroke-width:0.436364;stroke-opacity:1"
           d="m 327.54024,91.133094 v 0.435546 c -2.27476,1.292938 -4.40069,2.065885 -6.98047,1.310547 v -0.4375 z"
           id="path20152" />
        <path
           style="fill:none;fill-opacity:1;stroke:#ef273e;stroke-width:0.436364;stroke-opacity:1"
           d="m 315.32149,83.715126 6.98242,2.617187 c -2.13208,1.456571 -7.9433,1.03906 -6.98242,-2.617187 z"
           id="path20146" />
        <path
           style="fill:none;fill-opacity:1;stroke:#ef273e;stroke-width:0.436364;stroke-opacity:1"
           d="m 330.59493,82.842079 c -1.01629,5.237186 -9.60328,7.334344 -13.96289,5.236328 V 87.64286 c 5.73677,1.365808 9.47184,-1.733175 13.96289,-4.800781 z"
           id="path20144" />
        <path
           style="fill:none;fill-opacity:1;stroke:#ef273e;stroke-width:0.436364;stroke-opacity:1"
           d="m 332.77657,82.406532 c -0.28887,5.55791 -4.74382,5.993635 -8.29102,8.726562 l -1.30859,-0.435547 c -0.85832,1.490164 -4.40325,1.417463 -4.80078,-0.4375 l 4.80078,0.4375 6.06836,-3.339843 z"
           id="path20142" />
        <path
           style="fill:none;fill-opacity:1;stroke:#ef273e;stroke-width:0.436364;stroke-opacity:1"
           d="m 312.26876,80.224891 0.43554,1.744141 -1.74609,-1.308594 z"
           id="path20140" />
        <path
           style="fill:none;fill-opacity:1;stroke:#ef273e;stroke-width:0.436364;stroke-opacity:1"
           d="m 329.72188,79.787391 c -1.15724,4.110926 -6.83295,6.107777 -10.47266,3.927728 z"
           id="path20138" />
        <path
           style="fill:none;fill-opacity:1;stroke:#ef273e;stroke-width:0.436364;stroke-opacity:1"
           d="m 320.52071,77.303016 c 0.66804,-0.01083 1.32106,0.278549 1.88476,1 l -6.3125,3.970703 c 0.10016,-1.954182 2.33741,-4.936817 4.42774,-4.970703 z"
           id="path20136" />
        <path
           style="fill:none;fill-opacity:1;stroke:#ef273e;stroke-width:0.436364;stroke-opacity:1"
           d="m 310.52266,77.170204 0.43555,0.871094 h -0.87305 z"
           id="path20134" />
        <path
           style="fill:none;fill-opacity:1;stroke:#ef273e;stroke-width:0.436364;stroke-opacity:1"
           d="m 312.7043,74.115516 -0.43554,2.181641 -1.31055,-0.4375 z"
           id="path20128" />
        <path
           style="fill:none;fill-opacity:1;stroke:#ef273e;stroke-width:0.436364;stroke-opacity:1"
           d="m 320.99532,71.496376 -4.80078,5.236328 c 0.3443,-1.702186 0.86321,-2.737888 2.61914,-3.054688 z"
           id="path20122" />
        <path
           style="fill:none;fill-opacity:1;stroke:#ef273e;stroke-width:0.436364;stroke-opacity:1"
           d="m 336.26876,70.623329 h 0.87109 c -0.003,3.842126 -0.10461,8.670227 -2.61719,11.783203 -1.23971,-4.193398 1.1461,-7.720277 1.7461,-11.783203 z"
           id="path20116" />
        <path
           style="fill:none;fill-opacity:1;stroke:#ef273e;stroke-width:0.436364;stroke-opacity:1"
           d="m 317.06758,70.187782 -2.61718,4.800781 h -0.4375 z"
           id="path20114" />
        <path
           style="fill:none;fill-opacity:1;stroke:#ef273e;stroke-width:0.436364;stroke-opacity:1"
           d="m 330.59493,69.314735 c 0.48175,2.372915 3.72596,5.367191 0,6.544922 -0.65454,4.22874 -5.42938,5.64241 -9.16406,5.673828 2.05818,-2.922282 4.81127,-6.71896 8.72851,-6.109375 v -0.435547 l -1.74609,-0.4375 1.74609,-2.18164 z"
           id="path20112" />
        <path
           style="fill:none;fill-opacity:1;stroke:#ef273e;stroke-width:0.436364;stroke-opacity:1"
           d="m 328.84883,68.441688 c -0.15142,2.762095 -1.50091,4.412359 -3.92578,5.673828 l 0.87305,-2.18164 -1.74609,0.871093 -0.4375,-0.435546 2.61914,-2.181641 -0.43555,1.746094 z"
           id="path20110" />
        <path
           style="fill:none;fill-opacity:1;stroke:#ef273e;stroke-width:0.436364;stroke-opacity:1"
           d="m 307.93672,68.095985 c 1.82358,2.08011 2.01106,4.203308 1.16016,6.800781 l -0.90234,-2.169921 -0.63672,1.845703 -0.61719,-0.0078 0.3457,-3.390625 0.90821,1.552735 z"
           id="path20108" />
        <path
           style="fill:none;fill-opacity:1;stroke:#ef273e;stroke-width:0.436364;stroke-opacity:1"
           d="m 320.99532,66.697547 0.43555,1.744141 -3.49024,2.181641 z"
           id="path20104" />
        <path
           style="fill:none;fill-opacity:1;stroke:#ef273e;stroke-width:0.436364;stroke-opacity:1"
           d="m 311.39571,65.386995 h 0.87305 l -1.31055,5.236329 h -0.43555 z"
           id="path20098" />
        <path
           style="fill:none;fill-opacity:1;stroke:#ef273e;stroke-width:0.436364;stroke-opacity:1"
           d="m 294.37618,65.386995 3.49219,4.800782 c -1.84451,-1.031076 -4.3239,-2.378243 -3.49219,-4.800782 z"
           id="path20096" />
        <path
           style="fill:none;fill-opacity:1;stroke:#ef273e;stroke-width:0.436364;stroke-opacity:1"
           d="m 332.52657,65.342075 c 2.90772,-0.0099 2.86219,3.213511 2.86914,5.718751 -2.40349,-0.713875 -4.16724,-2.077657 -5.23633,-4.363282 l 3.49023,1.308594 -1.74609,-2.619141 c 0.22099,-0.03057 0.4292,-0.04426 0.62305,-0.04492 z"
           id="path20094" />
        <path
           style="fill:none;fill-opacity:1;stroke:#ef273e;stroke-width:0.436364;stroke-opacity:1"
           d="m 317.50508,64.078403 c 3.27927,1.089126 0.40306,4.014985 -1.31054,5.236329 z"
           id="path20088" />
        <path
           style="fill:none;fill-opacity:1;stroke:#ef273e;stroke-width:0.436364;stroke-opacity:1"
           d="m 326.23165,63.205356 h 0.87304 l 0.43555,1.746094 h -1.74414 z"
           id="path20084" />
        <path
           style="fill:none;fill-opacity:1;stroke:#ef273e;stroke-width:0.436364;stroke-opacity:1"
           d="m 314.88594,62.769809 c 3.55157,1.190361 -0.44404,8.36605 -2.61718,9.599611 z"
           id="path20080" />
        <path
           style="fill:none;fill-opacity:1;stroke:#ef273e;stroke-width:0.436364;stroke-opacity:1"
           d="m 305.28633,62.332309 c 1.80786,2.877238 1.69186,6.802123 -0.87304,9.164064 z"
           id="path20078" />
        <path
           style="fill:none;fill-opacity:1;stroke:#ef273e;stroke-width:0.436364;stroke-opacity:1"
           d="m 319.24922,61.023715 h 0.87305 l -0.43555,2.181641 h -0.4375 z"
           id="path20074" />
        <path
           style="fill:none;fill-opacity:1;stroke:#ef273e;stroke-width:0.436364;stroke-opacity:1"
           d="m 322.72969,60.181919 c 0.5885,-0.0043 1.31471,0.128372 2.19336,0.40625 l -1.31054,2.617187 1.74609,-1.308594 c -0.30065,1.871091 -0.85515,2.749289 -2.61719,3.490235 l -1.74609,-0.435547 c -0.71556,-3.00521 -0.36704,-4.754233 1.73437,-4.769531 z"
           id="path20072" />
        <path
           style="fill:none;fill-opacity:1;stroke:#ef273e;stroke-width:0.436364;stroke-opacity:1"
           d="m 303.10469,60.150669 h 0.87305 l -0.87305,10.03711 c -1.7184,-2.51505 -1.13368,-7.350438 0,-10.03711 z"
           id="path20070" />
        <path
           style="fill:none;fill-opacity:1;stroke:#ef273e;stroke-width:0.436364;stroke-opacity:1"
           d="m 310.95821,59.715122 -0.43555,1.746093 h -0.4375 z"
           id="path20068" />
        <path
           style="fill:none;fill-opacity:1;stroke:#ef273e;stroke-width:0.436364;stroke-opacity:1"
           d="m 299.61251,59.715122 h 0.87304 v 6.544922 h -0.43554 z"
           id="path20066" />
        <path
           style="fill:none;fill-opacity:1;stroke:#ef273e;stroke-width:0.436364;stroke-opacity:1"
           d="m 296.12227,59.715122 h 0.87305 v 3.490234 h 0.43555 l 0.4375,-0.873047 0.43554,3.054688 h -0.43554 l -0.4375,-1.308594 h -0.43555 v 1.746094 c -1.8685,-1.319946 -1.45778,-4.13127 -0.87305,-6.109375 z"
           id="path20064" />
        <path
           style="fill:none;fill-opacity:1;stroke:#ef273e;stroke-width:0.436364;stroke-opacity:1"
           d="m 327.54024,57.969028 c 2.73818,1.465201 5.09532,3.314791 6.54492,6.109375 l -4.79883,0.4375 z"
           id="path20056" />
        <path
           style="fill:none;fill-opacity:1;stroke:#ef273e;stroke-width:0.436364;stroke-opacity:1"
           d="m 322.30391,57.969028 1.3086,1.310547 h -1.74414 z"
           id="path20054" />
        <path
           style="fill:none;fill-opacity:1;stroke:#ef273e;stroke-width:0.436364;stroke-opacity:1"
           d="m 318.81368,57.969028 0.87304,1.310547 c -0.98203,-0.206487 -1.3609,-0.376838 -0.87304,-1.310547 z"
           id="path20052" />
        <path
           style="fill:none;fill-opacity:1;stroke:#ef273e;stroke-width:0.436364;stroke-opacity:1"
           d="m 306.59493,57.969028 c 1.37411,1.702859 2.64943,4.674222 0.4375,6.109375 -0.58517,-2.144939 -1.66368,-4.02112 -0.4375,-6.109375 z"
           id="path20050" />
        <path
           style="fill:none;fill-opacity:1;stroke:#ef273e;stroke-width:0.436364;stroke-opacity:1"
           d="m 324.48555,57.533481 h 1.31055 l -0.4375,1.308594 h -0.43555 z"
           id="path20044" />
        <path
           style="fill:none;fill-opacity:1;stroke:#ef273e;stroke-width:0.436364;stroke-opacity:1"
           d="m 329.15743,56.894809 c 2.71635,-0.0074 5.09442,3.060857 5.80078,5.4375 l -6.98047,-5.236328 c 0.39802,-0.137651 0.79161,-0.200109 1.17969,-0.201172 z"
           id="path20042" />
        <path
           style="fill:none;fill-opacity:1;stroke:#ef273e;stroke-width:0.436364;stroke-opacity:1"
           d="m 320.12227,56.660434 1.7461,0.435547 -1.7461,1.746094 -0.43555,-1.746094 z"
           id="path20040" />
        <path
           style="fill:none;fill-opacity:1;stroke:#ef273e;stroke-width:0.436364;stroke-opacity:1"
           d="m 307.90352,56.660434 c 1.70792,0.508233 2.24753,1.276074 2.18164,3.054688 h -0.87109 z"
           id="path20038" />
        <path
           style="fill:none;fill-opacity:1;stroke:#ef273e;stroke-width:0.436364;stroke-opacity:1"
           d="m 300.48555,55.787387 -2.18164,2.181641 c 0.25178,-1.515994 0.66572,-1.930077 2.18164,-2.181641 z"
           id="path20034" />
        <path
           style="fill:none;fill-opacity:1;stroke:#ef273e;stroke-width:0.436364;stroke-opacity:1"
           d="m 305.35665,55.310821 c 0.40706,2.2e-4 0.83942,0.06768 1.29101,0.205078 l -4.46875,2.189453 c 0.58634,-1.543009 1.72392,-2.395316 3.17774,-2.394531 z"
           id="path20028" />
        <path
           style="fill:none;fill-opacity:1;stroke:#ef273e;stroke-width:0.436364;stroke-opacity:1"
           d="m 316.63204,54.47879 c 0.64058,2.234408 0.28297,5.29979 -2.18164,6.109375 0.0205,-2.439889 0.27255,-4.442024 2.18164,-6.109375 z"
           id="path20024" />
        <path
           style="fill:none;fill-opacity:1;stroke:#ef273e;stroke-width:0.436364;stroke-opacity:1"
           d="m 317.94063,52.297149 3.05469,3.927734 c -2.08669,-0.331785 -3.24844,-1.778651 -3.05469,-3.927734 z"
           id="path20014" />
        <path
           style="fill:none;fill-opacity:1;stroke:#ef273e;stroke-width:0.436364;stroke-opacity:1"
           d="m 321.10274,50.414337 c 4.65709,0.01953 4.53392,8.476557 -0.30078,3.117187 -0.73265,-0.811914 -1.37214,-1.644043 -1.98828,-2.542969 0.86061,-0.406451 1.62376,-0.577012 2.28906,-0.574218 z"
           id="path20006" />
        <path
           style="fill:none;fill-opacity:1;stroke:#ef273e;stroke-width:0.436364;stroke-opacity:1"
           d="m 311.53438,48.963165 c 1.61664,-0.01087 3.05484,0.794743 3.78711,2.896484 l -0.43555,0.4375 -2.02148,0.251953 c 0.36031,0.02922 0.74071,0.09022 1.14844,0.183594 l -1.74414,3.492187 2.18164,-1.746093 -0.87305,3.054687 h -1.30859 v -1.308594 l -3.92774,-1.310546 c 0.79287,-1.063788 1.57901,-1.759188 2.49414,-2.111329 l -6.42187,0.802735 c 1.23818,-2.337214 4.4267,-4.624466 7.12109,-4.642578 z"
           id="path19998" />
        <path
           style="fill:none;fill-opacity:1;stroke:#ef273e;stroke-width:0.436364;stroke-opacity:1"
           d="m 307.81758,47.168243 c 0.72924,-0.0059 1.48687,0.09788 2.26758,0.328125 -2.76872,2.016436 -6.09953,4.759457 -9.59961,4.800781 1.55504,-2.997408 4.17246,-5.103216 7.33203,-5.128906 z"
           id="path19994" />
      </g>
      <g
         id="g20204"
         style="fill:none;fill-opacity:1;stroke:#ef273e;stroke-opacity:1"
         transform="matrix(0.98583046,0,0,0.99885744,-133.9845,-20.788679)">
        <path
           style="fill:none;fill-opacity:1;stroke:#ef273e;stroke-width:0.436364;stroke-opacity:1"
           d="m 237.12813,76.994423 c 0.56187,0.0027 1.15669,0.211374 1.83008,0.611328 l -3.92579,0.435547 c 0.70688,-0.713536 1.37323,-1.050293 2.09571,-1.046875 z"
           id="path20132" />
        <path
           style="fill:none;fill-opacity:1;stroke:#ef273e;stroke-width:0.436364;stroke-opacity:1"
           d="m 244.19454,76.297157 c -1.81702,3.470671 -4.67051,3.925552 -8.29102,3.927734 z"
           id="path20130" />
        <path
           style="fill:none;fill-opacity:1;stroke:#ef273e;stroke-width:0.436364;stroke-opacity:1"
           d="m 231.10469,72.804969 3.49023,3.492188 v 0.435547 c -2.37003,0.899726 -4.94496,-1.614248 -3.49023,-3.927735 z"
           id="path20126" />
        <path
           style="fill:none;fill-opacity:1;stroke:#ef273e;stroke-width:0.436364;stroke-opacity:1"
           d="m 244.29805,72.156532 c 0.75766,-0.01715 1.58928,0.311434 2.51563,0.648437 -1.40902,1.421611 -2.59662,1.177136 -4.36328,0.4375 0.56863,-0.785393 1.17913,-1.070806 1.84765,-1.085937 z"
           id="path20124" />
        <path
           style="fill:none;fill-opacity:1;stroke:#ef273e;stroke-width:0.436364;stroke-opacity:1"
           d="m 249.43087,71.496376 v 0.4375 l -2.18165,0.435547 z"
           id="path20120" />
        <path
           style="fill:none;fill-opacity:1;stroke:#ef273e;stroke-width:0.436364;stroke-opacity:1"
           d="m 231.54024,71.060829 6.10937,2.18164 v 0.435547 l -3.92773,-0.435547 v 0.435547 l 4.36328,0.873047 c -1.64161,2.323082 -4.83901,0.91866 -4.79883,-1.746094 l -1.74609,-0.871093 z"
           id="path20118" />
        <path
           style="fill:none;fill-opacity:1;stroke:#ef273e;stroke-width:0.436364;stroke-opacity:1"
           d="m 229.79609,67.133095 2.18165,3.054687 -1.31055,0.435547 z"
           id="path20106" />
        <path
           style="fill:none;fill-opacity:1;stroke:#ef273e;stroke-width:0.436364;stroke-opacity:1"
           d="m 228.05,65.824495 c 0.88222,2.114506 2.79864,6.076701 0.43555,7.417969 l -2.18164,-6.982422 h 0.4375 l 0.87109,2.181641 h 0.4375 z"
           id="path20100" />
        <path
           style="fill:none;fill-opacity:1;stroke:#ef273e;stroke-width:0.436364;stroke-opacity:1"
           d="m 250.30391,64.95145 0.87305,3.054688 h -0.43555 z"
           id="path20092" />
        <path
           style="fill:none;fill-opacity:1;stroke:#ef273e;stroke-width:0.436364;stroke-opacity:1"
           d="m 237.21406,64.95145 c 1.36532,0.910192 9.4025,6.631754 8.72657,3.927735 l 2.18164,1.308594 c -3.6576,1.513183 -10.32837,-0.841152 -10.90821,-5.236329 z"
           id="path20090" />
        <path
           style="fill:none;fill-opacity:1;stroke:#ef273e;stroke-width:0.436364;stroke-opacity:1"
           d="m 230.94649,63.381137 c 0.0706,-0.0015 0.13973,-0.0014 0.20898,0 4.51128,0.09117 6.29814,6.237131 11.29493,7.679689 -2.49644,4.478973 -11.84104,-4.459168 -13.09181,-7.41797 0.56635,-0.167399 1.09388,-0.250985 1.5879,-0.261719 z"
           id="path20086" />
        <path
           style="fill:none;fill-opacity:1;stroke:#ef273e;stroke-width:0.436364;stroke-opacity:1"
           d="m 238.08516,63.205356 c 3.31724,0.598691 5.76588,2.812784 7.41992,5.673829 -2.74583,-1.143645 -6.52101,-2.617294 -7.41992,-5.673829 z"
           id="path20082" />
        <path
           style="fill:none;fill-opacity:1;stroke:#ef273e;stroke-width:0.436364;stroke-opacity:1"
           d="m 250.30391,62.332309 c 1.51156,1.737521 3.15106,3.266646 2.61914,5.673829 h -0.4375 z"
           id="path20076" />
        <path
           style="fill:none;fill-opacity:1;stroke:#ef273e;stroke-width:0.436364;stroke-opacity:1"
           d="m 244.63204,58.842075 c 3.37537,1.501505 4.06225,4.446391 3.05468,7.855469 h -0.4375 c -1.34803,-2.311264 -3.15086,-5.125023 -2.61718,-7.855469 z"
           id="path20062" />
        <path
           style="fill:none;fill-opacity:1;stroke:#ef273e;stroke-width:0.436364;stroke-opacity:1"
           d="m 241.57735,58.406528 c 1.84102,1.248403 2.30432,3.553091 2.61719,5.671875 l -3.05469,-5.236328 z"
           id="path20060" />
        <path
           style="fill:none;fill-opacity:1;stroke:#ef273e;stroke-width:0.436364;stroke-opacity:1"
           d="m 239.83126,58.406528 0.87304,3.925781 -3.05469,-1.74414 0.43555,1.308593 -2.18164,-1.746093 z"
           id="path20058" />
        <path
           style="fill:none;fill-opacity:1;stroke:#ef273e;stroke-width:0.436364;stroke-opacity:1"
           d="m 268.63204,57.969028 c -0.008,2.940466 -0.096,5.12488 -3.49219,5.236328 z"
           id="path20048" />
        <path
           style="fill:none;fill-opacity:1;stroke:#ef273e;stroke-width:0.436364;stroke-opacity:1"
           d="m 232.41328,57.969028 1.3086,3.492187 h -5.23633 z"
           id="path20046" />
        <path
           style="fill:none;fill-opacity:1;stroke:#ef273e;stroke-width:0.436364;stroke-opacity:1"
           d="m 251.17696,56.224887 c 1.73629,2.043937 2.95968,3.829852 2.18164,6.544922 h -0.43555 z"
           id="path20036" />
        <path
           style="fill:none;fill-opacity:1;stroke:#ef273e;stroke-width:0.436364;stroke-opacity:1"
           d="m 256.41329,55.787387 -0.43555,5.236328 h -0.87305 z"
           id="path20032" />
        <path
           style="fill:none;fill-opacity:1;stroke:#ef273e;stroke-width:0.436364;stroke-opacity:1"
           d="m 238.95821,55.351841 0.4375,1.74414 c -2.02859,0.696542 -3.16403,1.210833 -4.36329,-0.871094 z"
           id="path20030" />
        <path
           style="fill:none;fill-opacity:1;stroke:#ef273e;stroke-width:0.436364;stroke-opacity:1"
           d="m 241.13985,54.914337 1.74609,0.4375 v 1.74414 L 240.7043,56.66043 Z"
           id="path20026" />
        <path
           style="fill:none;fill-opacity:1;stroke:#ef273e;stroke-width:0.436364;stroke-opacity:1"
           d="m 249.86837,54.47879 0.87304,4.800781 c -1.66735,-1.389822 -2.00802,-2.902809 -0.87304,-4.800781 z"
           id="path20022" />
        <path
           style="fill:none;fill-opacity:1;stroke:#ef273e;stroke-width:0.436364;stroke-opacity:1"
           d="m 227.17695,54.04129 -0.43554,8.728515 h -0.4375 c -1.20055,-2.845067 -1.39094,-6.385659 0.87304,-8.728515 z"
           id="path20020" />
        <path
           style="fill:none;fill-opacity:1;stroke:#ef273e;stroke-width:0.436364;stroke-opacity:1"
           d="m 251.17696,53.605743 1.30859,3.054687 h -0.43554 z"
           id="path20018" />
        <path
           style="fill:none;fill-opacity:1;stroke:#ef273e;stroke-width:0.436364;stroke-opacity:1"
           d="m 237.64961,53.605743 v 0.435547 l -2.61719,0.873047 z"
           id="path20016" />
        <path
           style="fill:none;fill-opacity:1;stroke:#ef273e;stroke-width:0.436364;stroke-opacity:1"
           d="m 240.26876,51.859649 c 1.56232,0.247855 2.15595,0.65802 2.61718,2.181641 h -2.18164 z"
           id="path20012" />
        <path
           style="fill:none;fill-opacity:1;stroke:#ef273e;stroke-width:0.436364;stroke-opacity:1"
           d="m 270.63008,51.064727 1.49219,5.595703 h 0.4375 z"
           id="path20010" />
        <path
           style="fill:none;fill-opacity:1;stroke:#ef273e;stroke-width:0.436364;stroke-opacity:1"
           d="m 257.28633,50.551055 1.3086,12.654297 h 0.87304 l 0.43555,-5.236328 3.49219,0.873047 c -0.85876,-1.702901 -2.39908,-1.557168 -3.41406,-2.878906 -2.1251,-2.76728 2.09578,-6.186556 4.39843,-3.839844 1.12187,1.143099 1.56212,2.424829 1.51953,3.722656 l 0.55079,-3.113281 c 1.58394,2.608521 1.61483,5.757786 -1.31055,7.417969 l 0.48047,-2.71875 c -1.19935,3.824053 -5.95163,7.370468 -9.20703,7.519531 l 0.8164,-6.982422 z"
           id="path20008" />
        <path
           style="fill:none;fill-opacity:1;stroke:#ef273e;stroke-width:0.436364;stroke-opacity:1"
           d="m 236.19649,50.25418 c 0.47344,-0.02259 0.97504,0.190831 1.45312,0.734375 l 0.87305,-0.4375 0.43555,2.619141 -2.61719,-1.310547 h -0.4375 l -1.74414,0.4375 c 0.33334,-1.098248 1.13333,-1.999837 2.03711,-2.042969 z"
           id="path20004" />
        <path
           style="fill:none;fill-opacity:1;stroke:#ef273e;stroke-width:0.436364;stroke-opacity:1"
           d="m 245.06758,50.115508 c 2.36946,1.3862 2.92591,2.557399 2.61914,5.236329 -1.61327,-1.246694 -3.35528,-3.088803 -2.61914,-5.236329 z"
           id="path20002" />
        <path
           style="fill:none;fill-opacity:1;stroke:#ef273e;stroke-width:0.436364;stroke-opacity:1"
           d="m 232.41328,49.242461 c -0.0291,3.463345 -0.002,7.153259 -3.49023,8.726563 0,-3.557837 -0.18036,-6.973584 3.49023,-8.726563 z"
           id="path20000" />
        <path
           style="fill:none;fill-opacity:1;stroke:#ef273e;stroke-width:0.436364;stroke-opacity:1"
           d="m 245.94063,47.496368 2.61914,3.927734 c -1.77469,-0.739246 -4.12372,-1.883802 -2.61914,-3.927734 z"
           id="path19996" />
        <path
           style="fill:none;fill-opacity:1;stroke:#ef273e;stroke-width:0.436364;stroke-opacity:1"
           d="m 252.48555,47.060821 c 2.55448,3.590389 2.30115,5.913756 1.7461,10.035156 -3.18327,-2.084853 -4.50083,-7.18379 -1.7461,-10.035156 z"
           id="path19992" />
        <path
           style="fill:none;fill-opacity:1;stroke:#ef273e;stroke-width:0.436364;stroke-opacity:1"
           d="m 260.30196,46.830352 c 1.10837,-0.04621 2.5752,1.20451 3.5293,3.720703 l -4.79883,0.873047 c -0.68287,-3.025404 0.0897,-4.544563 1.26953,-4.59375 z"
           id="path19990" />
        <path
           style="fill:none;fill-opacity:1;stroke:#ef273e;stroke-width:0.436364;stroke-opacity:1"
           d="m 243.59493,46.187774 c 0.0535,-10e-4 0.10807,-8.96e-4 0.16406,0 l -0.87305,3.054687 -1.74609,-0.4375 c 0.33184,-1.626254 0.79744,-2.584886 2.45508,-2.617187 z"
           id="path19988" />
        <path
           style="fill:none;fill-opacity:1;stroke:#ef273e;stroke-width:0.436364;stroke-opacity:1"
           d="m 253.3586,45.314727 c 2.40524,0.691766 3.26453,2.423084 2.61914,4.800781 z"
           id="path19986" />
        <path
           style="fill:none;fill-opacity:1;stroke:#ef273e;stroke-width:0.436364;stroke-opacity:1"
           d="m 249.09493,45.10379 c 0.48017,-1.39e-4 1.03088,0.06485 1.64648,0.210937 l -1.31054,3.927734 c -3.57525,-1.673115 -3.27034,-4.137827 -0.33594,-4.138671 z"
           id="path19984" />
        <path
           style="fill:none;fill-opacity:1;stroke:#ef273e;stroke-width:0.436364;stroke-opacity:1"
           d="m 240.7043,44.87918 -0.87304,2.617188 -4.36329,-0.873047 z"
           id="path19982" />
        <path
           style="fill:none;fill-opacity:1;stroke:#ef273e;stroke-width:0.436364;stroke-opacity:1"
           d="m 263.34883,44.357696 c 4.07246,-0.02079 6.37145,5.887154 5.28321,9.683594 -3.04189,-2.144101 -5.90161,-5.759806 -7.41797,-9.16211 0.75428,-0.35614 1.46836,-0.518083 2.13476,-0.521484 z"
           id="path19980" />
        <path
           style="fill:none;fill-opacity:1;stroke:#ef273e;stroke-width:0.436364;stroke-opacity:1"
           d="m 257.24141,44.230743 c 0.94884,-0.02299 1.60368,0.392418 2.22656,1.521484 l -2.18164,0.871094 -1.30859,-2.181641 c 0.47729,-0.126139 0.89239,-0.201941 1.26367,-0.210937 z"
           id="path19978" />
        <path
           style="fill:none;fill-opacity:1;stroke:#ef273e;stroke-width:0.436364;stroke-opacity:1"
           d="m 268.19454,44.006133 c 6.83514,2.268772 11.08158,16.641255 1.74609,18.326172 l 0.43555,-1.308594 c -2.20494,-0.367368 -0.43686,-9.002791 -0.43555,-10.908203 h 0.36133 z"
           id="path19976" />
      </g>
    </g>
  </g>
</svg>
